<?xml version="1.0" encoding="UTF-8"?>
<!-- Generator: Adobe Illustrator 19.1.0, SVG Export Plug-In . SVG Version: 6.00 Build 0)  -->
<svg version="1.1" id="Layer_1" xmlns="http://www.w3.org/2000/svg" xmlns:xlink="http://www.w3.org/1999/xlink" x="0px" y="0px" viewBox="0 0 128 128" style="enable-background:new 0 0 128 128;" xml:space="preserve">
<style type="text/css">
	.st0{fill:#88C5CC;}
	.st1{fill:#F5F6F6;}
	.st2{fill:#E6E6E5;}
	.st3{fill:#989898;}
	.st4{fill:#B4B4B4;}
	.st5{fill:#CDCCCC;}
</style>
<g>
	<circle class="st0" cx="64" cy="64" r="64"/>
	<g>
		<path class="st1" d="M39,22.6c-0.3,0-0.6,0-1,0.1c-1.8-2.5-4.7-4.1-8-4.1c-5.5,0-10,4.5-10,10c0,0.3,0,0.7,0,1c-1.2,0.9-2,2.3-2,4    c0,2.8,2.2,5,5,5c1.1,0,5.5,0,7,0c1.7,0,7.4,0,9,0c4.4,0,8-3.5,8-8S43.4,22.6,39,22.6z"/>
		<path class="st2" d="M39,22.6c-0.3,0-0.6,0-1,0.1c-1.8-2.5-4.7-4.1-8-4.1c-0.4,0-0.7,0-1.1,0.1c2.9,0.3,5.4,1.8,7.1,4    c0.3,0,0.6-0.1,1-0.1c4.4,0,8,3.5,8,8s-3.6,8-8,8c0.9,0,1.6,0,2,0c4.4,0,8-3.5,8-8S43.4,22.6,39,22.6z"/>
	</g>
	<g>
		<path class="st1" d="M14,48.1c-0.1,0-0.1,0-0.2,0c-0.3-0.1-0.4-0.4-0.3-0.7c0.3-0.6,0.5-1.2,0.9-1.8c0.1-0.2,0.4-0.3,0.7-0.2    c0.2,0.1,0.3,0.4,0.2,0.7c-0.3,0.6-0.6,1.2-0.8,1.8C14.4,48,14.2,48.1,14,48.1z"/>
		<path class="st1" d="M84,97.1c-0.6,0-1.2-0.1-1.8-0.2c-0.3,0-0.5-0.3-0.4-0.6c0-0.3,0.3-0.5,0.6-0.4c1.3,0.2,2.6,0.2,3.9,0    c0.3,0,0.5,0.2,0.5,0.5c0,0.3-0.2,0.5-0.5,0.5C85.6,97.1,84.8,97.1,84,97.1z M94.1,95c-0.2,0-0.4-0.1-0.5-0.3    c-0.1-0.3,0-0.5,0.3-0.7c1.2-0.5,2.4-1.2,3.5-1.9c0.2-0.2,0.5-0.1,0.7,0.1c0.2,0.2,0.1,0.5-0.1,0.7c-1.2,0.8-2.4,1.4-3.6,2    C94.2,95,94.2,95,94.1,95z M75.3,93.2c-0.1,0-0.2,0-0.3-0.1C74,92.3,73,91.3,72,90.2c-0.2-0.2-0.2-0.5,0-0.7    c0.2-0.2,0.5-0.2,0.7,0c1,1.1,1.9,2,2.8,2.8c0.2,0.2,0.2,0.5,0.1,0.7C75.5,93.1,75.4,93.2,75.3,93.2z M33.7,90.3    c-0.2,0-0.4-0.1-0.5-0.4c-0.1-0.3,0.1-0.5,0.3-0.6c1.2-0.3,2.3-0.9,3.5-1.6c0.2-0.2,0.5-0.1,0.7,0.1c0.2,0.2,0.1,0.5-0.1,0.7    c-1.2,0.8-2.5,1.4-3.8,1.8C33.8,90.3,33.7,90.3,33.7,90.3z M25.8,89.6c-0.1,0-0.1,0-0.2,0c-1.3-0.6-2.5-1.3-3.5-2.2    c-0.2-0.2-0.2-0.5-0.1-0.7c0.2-0.2,0.5-0.2,0.7-0.1c1,0.8,2.1,1.5,3.3,2c0.3,0.1,0.4,0.4,0.3,0.7C26.2,89.5,26,89.6,25.8,89.6z     M103.6,87.7c-0.1,0-0.2,0-0.3-0.1c-0.2-0.2-0.2-0.5-0.1-0.7c0.8-1,1.6-2.1,2.4-3.2c0.2-0.2,0.5-0.3,0.7-0.1    c0.2,0.1,0.3,0.5,0.1,0.7c-0.8,1.2-1.6,2.3-2.4,3.3C103.9,87.7,103.7,87.7,103.6,87.7z M67.3,84.1c-0.2,0-0.3-0.1-0.4-0.2    c-0.8-1.1-1.6-2.1-2.4-3.2c-0.2-0.2-0.1-0.5,0.1-0.7c0.2-0.2,0.5-0.1,0.7,0.1c0.8,1.1,1.6,2.2,2.4,3.2c0.2,0.2,0.1,0.5-0.1,0.7    C67.5,84.1,67.4,84.1,67.3,84.1z M43.1,83.1c-0.1,0-0.2,0-0.3-0.1c-0.2-0.2-0.2-0.5-0.1-0.7c0.8-0.9,1.6-2,2.4-3.2    c0.2-0.2,0.5-0.3,0.7-0.1c0.2,0.2,0.3,0.5,0.1,0.7c-0.9,1.2-1.7,2.3-2.4,3.3C43.4,83,43.3,83.1,43.1,83.1z M17.9,80.9    c-0.2,0-0.4-0.1-0.5-0.3c-0.5-1.3-0.7-2.7-0.9-4.1c0-0.3,0.2-0.5,0.4-0.5c0.3,0,0.5,0.2,0.5,0.4c0.1,1.3,0.4,2.6,0.8,3.8    c0.1,0.3,0,0.5-0.3,0.6C18,80.9,18,80.9,17.9,80.9z M109.7,77.3c-0.1,0-0.1,0-0.2,0c-0.3-0.1-0.4-0.4-0.3-0.6    c0.5-1.2,0.9-2.5,1.3-3.8c0.1-0.3,0.4-0.4,0.6-0.3c0.3,0.1,0.4,0.4,0.3,0.6c-0.4,1.3-0.9,2.6-1.4,3.8    C110,77.2,109.9,77.3,109.7,77.3z M60,74.4c-0.1,0-0.3-0.1-0.4-0.2c-0.9-1.2-1.7-2.2-2.5-3.1c-0.2-0.2-0.1-0.5,0.1-0.7    c0.2-0.2,0.5-0.1,0.7,0.1c0.8,1,1.6,2,2.5,3.2c0.2,0.2,0.1,0.5-0.1,0.7C60.2,74.4,60.1,74.4,60,74.4z M50.1,73.1    c-0.1,0-0.2,0-0.3-0.1c-0.2-0.2-0.3-0.5-0.1-0.7c0.8-1.1,1.5-2.3,2.3-3.4c0.2-0.2,0.5-0.3,0.7-0.1c0.2,0.2,0.3,0.5,0.1,0.7    c-0.7,1.1-1.5,2.2-2.2,3.3C50.4,73,50.2,73.1,50.1,73.1z M18.1,69c-0.1,0-0.1,0-0.2,0c-0.3-0.1-0.4-0.4-0.3-0.6    c0.5-1.3,1.2-2.5,1.9-3.7c0.2-0.2,0.5-0.3,0.7-0.1c0.2,0.2,0.3,0.5,0.1,0.7c-0.7,1.1-1.4,2.2-1.8,3.4C18.5,68.9,18.3,69,18.1,69z     M112.8,65.6C112.8,65.6,112.7,65.6,112.8,65.6c-0.3,0-0.5-0.3-0.5-0.6c0.1-0.5,0.1-1,0.2-1.5c0.1-0.8,0.1-1.6,0.1-2.4    c0-0.3,0.4-0.5,0.7-0.5c0.3,0,0.7,0.2,0.7,0.5v0c0,0.9-0.2,1.7-0.3,2.6c-0.1,0.5-0.2,1-0.3,1.5C113.3,65.4,113,65.6,112.8,65.6z     M52,65.4c-0.1,0-0.2,0-0.3-0.1c-1-0.9-2.1-1.8-3.1-2.6c-0.2-0.2-0.3-0.5-0.1-0.7c0.2-0.2,0.5-0.3,0.7-0.1c1,0.8,2.1,1.6,3.1,2.6    c0.2,0.2,0.2,0.5,0,0.7C52.2,65.3,52.1,65.4,52,65.4z M26.1,60.3c-0.2,0-0.4-0.1-0.4-0.3c-0.1-0.2,0-0.5,0.2-0.7    c1.2-0.6,2.5-1.1,3.9-1.5c0.3-0.1,0.5,0.1,0.6,0.4c0.1,0.3-0.1,0.5-0.4,0.6c-1.3,0.3-2.5,0.8-3.7,1.4    C26.2,60.3,26.2,60.3,26.1,60.3z M41.8,59c-0.1,0-0.1,0-0.2,0c-1.3-0.4-2.5-0.7-3.8-0.8c-0.3,0-0.5-0.3-0.4-0.5    c0-0.3,0.3-0.5,0.5-0.4c1.4,0.1,2.7,0.4,4,0.9c0.3,0.1,0.4,0.4,0.3,0.6C42.2,58.9,42,59,41.8,59z M111.8,53.7    c-0.2,0-0.4-0.1-0.5-0.3c-0.4-1.2-0.9-2.5-1.5-3.7c-0.1-0.3,0-0.5,0.2-0.7c0.3-0.1,0.5,0,0.7,0.2c0.6,1.3,1.1,2.6,1.5,3.8    c0.1,0.3-0.1,0.5-0.3,0.6C111.9,53.6,111.9,53.7,111.8,53.7z M106.3,42.9c-0.2,0-0.3-0.1-0.4-0.2c-0.8-1.1-1.6-2.1-2.4-3.2    c-0.2-0.2-0.1-0.5,0.1-0.7c0.2-0.2,0.5-0.1,0.7,0.1c0.9,1.1,1.7,2.1,2.5,3.2c0.2,0.2,0.1,0.5-0.1,0.7    C106.5,42.9,106.4,42.9,106.3,42.9z M19.3,39.6c-0.1,0-0.2,0-0.3-0.1c-0.2-0.2-0.2-0.5-0.1-0.7c0.8-1,1.8-2.1,2.7-3    c0.2-0.2,0.5-0.2,0.7,0c0.2,0.2,0.2,0.5,0,0.7c-0.9,1-1.8,2-2.7,3C19.6,39.5,19.5,39.6,19.3,39.6z M98.2,33.9    c-0.1,0-0.2,0-0.3-0.1c-1-0.9-2-1.8-3.1-2.6c-0.2-0.2-0.3-0.5-0.1-0.7c0.2-0.2,0.5-0.3,0.7-0.1c1.1,0.8,2.1,1.7,3.1,2.6    c0.2,0.2,0.2,0.5,0,0.7C98.5,33.9,98.4,33.9,98.2,33.9z M28,31.2c-0.1,0-0.3-0.1-0.4-0.2c-0.2-0.2-0.1-0.5,0.1-0.7    c1.1-0.8,2.2-1.6,3.3-2.4c0.2-0.2,0.5-0.1,0.7,0.1c0.2,0.2,0.1,0.5-0.1,0.7c-1.1,0.7-2.2,1.5-3.2,2.3C28.2,31.1,28.1,31.2,28,31.2    z M88.5,26.7c-0.1,0-0.2,0-0.3-0.1c-1.1-0.7-2.3-1.3-3.5-1.9c-0.2-0.1-0.3-0.4-0.2-0.7c0.1-0.2,0.4-0.3,0.7-0.2    c1.2,0.6,2.4,1.3,3.6,2c0.2,0.1,0.3,0.4,0.2,0.7C88.8,26.6,88.7,26.7,88.5,26.7z M38.3,24.8c-0.2,0-0.4-0.1-0.4-0.3    c-0.1-0.2,0-0.5,0.2-0.7c1.2-0.6,2.5-1.2,3.7-1.7c0.3-0.1,0.5,0,0.7,0.3c0.1,0.3,0,0.5-0.3,0.7c-1.2,0.5-2.5,1.1-3.7,1.6    C38.4,24.7,38.3,24.8,38.3,24.8z M77.5,21.7c-0.1,0-0.1,0-0.2,0c-1.3-0.4-2.6-0.8-3.8-1.1c-0.3-0.1-0.4-0.3-0.4-0.6    c0.1-0.3,0.3-0.4,0.6-0.4c1.3,0.3,2.6,0.7,3.9,1.1c0.3,0.1,0.4,0.4,0.3,0.6C77.9,21.5,77.7,21.7,77.5,21.7z M49.6,20.6    c-0.2,0-0.4-0.2-0.5-0.4c-0.1-0.3,0.1-0.5,0.4-0.6c1.3-0.3,2.7-0.6,4-0.8c0.3,0,0.5,0.1,0.6,0.4c0,0.3-0.1,0.5-0.4,0.6    c-1.3,0.2-2.6,0.5-3.9,0.8C49.7,20.6,49.7,20.6,49.6,20.6z M65.7,19.2C65.6,19.2,65.6,19.2,65.7,19.2c-1.2-0.1-2.5,0.1-3.7,0.1    l-0.4,0.2c0,0,0,0,0,0c-0.3,0-0.5-0.4-0.5-0.7c0-0.3,0.2-0.6,0.5-0.6l0.4-0.1c1.2,0,2.5,0,3.7,0.1c0.3,0,0.5,0.3,0.5,0.5    C66.1,19,65.9,19.2,65.7,19.2z"/>
		<path class="st1" d="M57.5,63.4c-0.1,0-0.3-0.1-0.4-0.2c-0.2-0.2-0.2-0.5,0-0.7c0.5-0.5,1.1-0.9,1.6-1.3c0.2-0.2,0.5-0.1,0.7,0.1    c0.2,0.2,0.1,0.5-0.1,0.7c-0.5,0.4-1,0.8-1.5,1.3C57.7,63.3,57.6,63.4,57.5,63.4z"/>
	</g>
	<g>
		<polygon class="st2" points="103,24.6 58,39.6 66,45.6   "/>
		<polygon class="st3" points="66,56.6 103,24.6 66,50.6   "/>
		<polygon class="st4" points="72,48.6 66,56.6 66,45.6 103,24.6   "/>
		<polygon class="st5" points="72,48.6 82,58.6 103,24.6   "/>
	</g>
	<g>
		<path class="st1" d="M70,99.6c-0.3,0-0.6,0-1,0.1c-1.8-2.5-4.7-4.1-8-4.1c-5.5,0-10,4.5-10,10c0,0.3,0,0.7,0,1c-1.2,0.9-2,2.3-2,4    c0,2.8,2.2,5,5,5c1.1,0,5.5,0,7,0c1.7,0,7.4,0,9,0c4.4,0,8-3.5,8-8S74.4,99.6,70,99.6z"/>
		<path class="st2" d="M70,99.6c-0.3,0-0.6,0-1,0.1c-1.8-2.5-4.7-4.1-8-4.1c-0.4,0-0.7,0-1.1,0.1c2.9,0.3,5.4,1.8,7.1,4    c0.3,0,0.6-0.1,1-0.1c4.4,0,8,3.5,8,8s-3.6,8-8,8c0.9,0,1.6,0,2,0c4.4,0,8-3.5,8-8S74.4,99.6,70,99.6z"/>
	</g>
</g>
</svg>